<svg xmlns="http://www.w3.org/2000/svg" xmlns:xlink="http://www.w3.org/1999/xlink" viewBox="0 0 24.18 21.02"><defs><style>.cls-1,.cls-2{fill:none;}.cls-2{clip-rule:evenodd;}.cls-3{clip-path:url(#clip-path);}.cls-4{clip-path:url(#clip-path-2);}.cls-5{fill:#a8abb3;}</style><clipPath id="clip-path" transform="translate(-1194 -2514)"><rect class="cls-1" width="1440" height="4320"/></clipPath><clipPath id="clip-path-2" transform="translate(-1194 -2514)"><path class="cls-2" d="M1208.82,2519a2.85,2.85,0,0,0-2.91,2.78,2.69,2.69,0,0,0,.08.63,8.39,8.39,0,0,1-6-2.91,2.68,2.68,0,0,0-.39,1.4,2.75,2.75,0,0,0,1.29,2.32,3,3,0,0,1-1.32-.35v0a2.82,2.82,0,0,0,2.33,2.73,3.05,3.05,0,0,1-1.31,0,2.9,2.9,0,0,0,2.72,1.93,6,6,0,0,1-3.61,1.19,6.15,6.15,0,0,1-.69,0,8.51,8.51,0,0,0,4.46,1.25,8,8,0,0,0,8.28-7.92q0-.18,0-.36a5.78,5.78,0,0,0,1.45-1.44,6,6,0,0,1-1.67.44,2.81,2.81,0,0,0,1.28-1.54,6,6,0,0,1-1.85.68,3,3,0,0,0-2.12-.88"/></clipPath></defs><title>Ресурс 2</title><g id="Слой_2" data-name="Слой 2"><g id="Слой_1-2" data-name="Слой 1"><g class="cls-3"><g class="cls-4"><rect class="cls-5" width="24.18" height="21.02"/></g></g></g></g></svg>