<svg xmlns="http://www.w3.org/2000/svg" xmlns:xlink="http://www.w3.org/1999/xlink" viewBox="0 0 26.25 24.97"><defs><style>.cls-1,.cls-2{fill:none;}.cls-2{clip-rule:evenodd;}.cls-3{clip-path:url(#clip-path);}.cls-4{clip-path:url(#clip-path-2);}.cls-5{fill:#a8abb3;}</style><clipPath id="clip-path" transform="translate(-1231 -2512)"><rect class="cls-1" width="1440" height="4320"/></clipPath><clipPath id="clip-path-2" transform="translate(-1231 -2512)"><path class="cls-2" d="M1242.41,2518.93a2.62,2.62,0,0,0-.76-.92,2,2,0,0,0-1.1-.36,1.81,1.81,0,0,0-1.37.64,2.37,2.37,0,0,0-.44,1.46,4.55,4.55,0,0,0,.64,2.22,3.07,3.07,0,0,0,.81.91,1.81,1.81,0,0,0,1.13.37,1.93,1.93,0,0,0,1.34-.56,2,2,0,0,0,.33-.77,6.13,6.13,0,0,0,0-.66A5.05,5.05,0,0,0,1242.41,2518.93Zm-1.69,7.52a8.9,8.9,0,0,0-1.29.28l-.44.17a2.68,2.68,0,0,0-.57.35,2.08,2.08,0,0,0-.48.59,1.73,1.73,0,0,0-.22.9,2,2,0,0,0,1,1.71,4.29,4.29,0,0,0,2.52.69,3.56,3.56,0,0,0,2.19-.61,1.84,1.84,0,0,0,.74-1.51,1.88,1.88,0,0,0-.5-1.3,12.19,12.19,0,0,0-1.67-1.29l-.46,0A5.39,5.39,0,0,0,1240.72,2526.44Zm2.64-8.74a2.73,2.73,0,0,1,.43.34,3.59,3.59,0,0,1,.45.57,3.72,3.72,0,0,1,.37.75,3.41,3.41,0,0,1,.13,1,2.89,2.89,0,0,1-.48,1.69,5.31,5.31,0,0,1-.48.57l-.6.53a2.76,2.76,0,0,0-.34.41.9.9,0,0,0-.18.56.72.72,0,0,0,.19.51,4,4,0,0,0,.31.34l.69.55a6.82,6.82,0,0,1,1.13,1.12,2.79,2.79,0,0,1,.47,1.63,3.25,3.25,0,0,1-1.3,2.53,6,6,0,0,1-3.9,1.18,5,5,0,0,1-3.18-.88,2.36,2.36,0,0,1-1.06-1.92,2.69,2.69,0,0,1,.35-1.22,2.93,2.93,0,0,1,1.21-1.18,6.46,6.46,0,0,1,2.07-.73,16.14,16.14,0,0,1,1.79-.17,4.17,4.17,0,0,1-.39-.6,1.33,1.33,0,0,1-.2-.74,1.08,1.08,0,0,1,.08-.43l.12-.34a5.94,5.94,0,0,1-.65,0,3.16,3.16,0,0,1-2.47-1,2.9,2.9,0,0,1-.89-2.1,3.54,3.54,0,0,1,1.26-2.63,4.47,4.47,0,0,1,1.8-.9,9,9,0,0,1,1.73-.18h4.06l-1.25.71Zm8.89,6.58h-2.13v2H1250v.07h-1.21v-2.08h-2.16v-1.17h2.16V2521h1.3v2.06h2.13Z"/></clipPath></defs><title>Ресурс 3</title><g id="Слой_2" data-name="Слой 2"><g id="Слой_1-2" data-name="Слой 1"><g class="cls-3"><g class="cls-4"><rect class="cls-5" width="26.25" height="24.97"/></g></g></g></g></svg>